<svg width="32" height="22" viewBox="0 0 32 22" fill="none" xmlns="http://www.w3.org/2000/svg">
<path d="M16.0008 20.7378C15.3595 20.657 14.7697 20.9226 14.1537 21.0126C13.7711 21.0685 13.3903 21.1653 13.0065 21.1779C12.2149 21.2039 11.4175 21.2387 10.6303 21.1745C9.07743 21.0478 7.58304 20.6486 6.14504 20.0438C4.96101 19.5458 3.86151 18.8987 2.8521 18.1104C2.07376 17.5026 1.37649 16.8014 0.760409 16.0266C0.50267 15.7025 0.273548 15.3556 0.0157075 15.0399C0 14.8299 0 14.5991 0 14.3395C0.539349 14.1551 1.07354 13.977 1.61977 13.8512C2.01513 13.7601 2.42557 13.7297 2.83092 13.6882C3.22027 13.6484 3.61172 13.6292 4.03453 13.5986C3.88969 13.36 3.75023 13.115 3.5963 12.8793C2.69114 11.4936 2.05751 9.98619 1.64354 8.39111C1.49363 7.81348 1.43651 7.20756 1.38338 6.61043C1.34594 6.18968 1.64539 5.99417 2.0673 6.09414C2.25372 6.13831 2.44645 6.15586 2.66255 6.21598C2.90117 7.61574 3.3465 8.91237 3.95598 10.1498C4.88798 12.0421 6.12439 13.7088 7.67251 15.1516C8.89262 16.2887 10.2381 17.2355 11.7247 17.9799C12.9671 18.6021 14.2683 19.0703 15.6386 19.3235C15.9105 19.3738 16.0315 19.4763 16.0063 19.77C15.9789 20.0904 16.0006 20.4151 16.0008 20.7378Z" fill="#AA80FF"/>
<path d="M32 15.0319C31.9563 15.0878 31.9009 15.1055 31.8706 15.1434C31.3608 15.7799 30.9041 16.468 30.3352 17.0457C29.5066 17.8871 28.5683 18.6065 27.5346 19.1979C26.2534 19.9307 24.9126 20.5142 23.467 20.8125C22.6227 20.9867 21.7614 21.0957 20.9023 21.175C20.303 21.2303 19.6877 21.242 19.0915 21.172C18.2694 21.0754 17.4584 20.8833 16.6566 20.7082C17.1098 20.6069 17.5524 20.5451 17.9876 20.4495C20.1115 19.983 22.0286 19.0585 23.7817 17.7866C25.0563 16.8619 26.1795 15.7743 27.1739 14.5533C27.4285 14.2407 27.6867 13.931 27.9432 13.62C29.165 13.6218 30.3658 13.7774 31.5373 14.1286C31.6893 14.1742 31.8241 14.2767 31.9834 14.3318C32 14.5415 32 14.7723 32 15.0319Z" fill="#AA80FF"/>
<path d="M27.9474 13.599C27.6867 13.9311 27.4285 14.2408 27.1739 14.5534C26.1795 15.7744 25.0563 16.8619 23.7816 17.7867C22.0286 19.0586 20.1115 19.9831 17.9876 20.4495C17.5524 20.5451 17.1098 20.607 16.6446 20.6871C16.4307 20.7089 16.2428 20.7279 16.0278 20.7424C16.0005 20.4151 15.9788 20.0904 16.0063 19.77C16.0315 19.4763 15.9105 19.3738 15.6386 19.3235C14.2683 19.0703 12.967 18.6021 11.7246 17.9799C10.2381 17.2355 8.89261 16.2887 7.6725 15.1516C6.12438 13.7088 4.88797 12.0421 3.95597 10.1498C3.34648 8.91237 2.90116 7.61574 2.68839 6.22126C3.67072 6.32666 4.61555 6.60235 5.52315 6.99108C6.19696 7.27968 6.84936 7.61827 7.54463 7.95154C7.65014 8.02656 7.71665 8.09406 7.79532 8.14132C9.34879 9.07436 10.7378 10.2046 11.9278 11.575C12.094 11.7664 12.2685 11.9506 12.4689 12.1708C12.4856 12.0781 12.4992 12.0398 12.4982 12.002C12.4777 11.2342 12.4287 10.4659 12.4415 9.69868C12.453 9.00542 12.5092 8.31074 12.5877 7.62147C12.6475 7.09665 12.773 6.57931 12.8693 6.05864C13.075 5.36368 13.2156 4.64044 13.5019 3.98042C13.9268 3.00098 14.4396 2.05805 14.9474 1.11708C15.1242 0.789431 15.3801 0.498331 15.631 0.218354C15.9183 -0.102409 16.2574 -0.0617773 16.5154 0.287712C16.5876 0.385521 16.663 0.480921 16.7345 0.616214C14.064 4.46943 13.3523 8.70634 14.0762 13.2283C14.3963 15.228 15.1132 17.0975 16.2287 18.9055C16.2924 18.679 16.3203 18.5482 16.3657 18.4238C16.7252 17.4388 17.0508 16.4392 17.4593 15.4747C17.9778 14.2502 18.7758 13.1881 19.5806 12.1142C19.926 11.7412 20.2432 11.3691 20.5824 11.0183C21.666 9.89769 22.8856 8.94678 24.2167 8.13679C24.3024 8.08469 24.3682 8.00016 24.4433 7.93072C24.9783 7.67526 25.5091 7.41049 26.0492 7.16632C27.0841 6.6985 28.1645 6.37132 29.2853 6.19103C29.628 6.1359 29.9837 6.10717 30.3281 6.13427C30.606 6.15613 30.7098 6.4321 30.678 6.66316C30.4646 8.21107 30.0963 9.72133 29.3689 11.1149C28.931 11.9539 28.4262 12.7581 27.9474 13.599Z" fill="#BC9AFF"/>
<path d="M19.5625 12.125C18.7758 13.1881 17.9778 14.2503 17.4593 15.4747C17.0508 16.4392 16.7252 17.4388 16.3657 18.4239C16.3203 18.5482 16.2924 18.679 16.2287 18.9055C15.1132 17.0975 14.3963 15.2281 14.0762 13.2283C13.3523 8.7064 14.064 4.46948 16.7426 0.636414C17.2036 1.35353 17.6949 2.0678 18.0938 2.8304C18.6117 3.8203 18.9614 4.88158 19.2236 6.01153C19.2629 6.19067 19.2776 6.3344 19.294 6.47793C19.4247 7.61699 19.6011 8.75326 19.6705 9.89603C19.7154 10.6341 19.6039 11.3817 19.5625 12.125Z" fill="#CCB3FF"/>
<path d="M12.8492 6.05331C12.773 6.57922 12.6475 7.09655 12.5878 7.62137C12.5093 8.31065 12.453 9.00533 12.4415 9.69858C12.4287 10.4658 12.4777 11.2341 12.4982 12.0019C12.4993 12.0397 12.4856 12.078 12.469 12.1707C12.2685 11.9505 12.094 11.7663 11.9278 11.5749C10.7378 10.2045 9.34881 9.07427 7.79534 8.14122C7.71667 8.09397 7.65016 8.02647 7.56719 7.94971C7.40581 6.86267 7.28423 5.79386 7.43508 4.71338C7.50693 4.19876 7.56669 3.68233 7.6236 3.1658C7.67171 2.72904 8.03245 2.40883 8.52836 2.68709C9.2223 3.07645 9.92821 3.45869 10.5667 3.92862C11.1918 4.38867 11.7436 4.94961 12.3173 5.47742C12.5044 5.64962 12.6594 5.85686 12.8492 6.05331Z" fill="#DCCBFF"/>
<path d="M19.5806 12.1142C19.6039 11.3815 19.7154 10.634 19.6705 9.89592C19.601 8.75314 19.4247 7.61687 19.294 6.47781C19.2776 6.33429 19.2629 6.19055 19.2468 6.01922C20.3051 4.74284 21.5564 3.72995 22.9872 2.93633C23.0921 2.87812 23.1872 2.80105 23.2947 2.7486C23.95 2.42868 24.3117 2.58564 24.4393 3.35301C24.6121 4.39289 24.6653 5.43996 24.6191 6.49024C24.5986 6.95566 24.5141 7.41828 24.451 7.90642C24.3682 8.00011 24.3024 8.08463 24.2167 8.13673C22.8856 8.94672 21.666 9.89763 20.5824 11.0183C20.2432 11.3691 19.926 11.7411 19.5806 12.1142Z" fill="#DCCBFF"/>
</svg>
