<svg width="52" height="50" viewBox="0 0 52 50" fill="none" xmlns="http://www.w3.org/2000/svg">
<path d="M25.7318 1.26547C26.5089 1.26547 27.3732 1.7445 28.2698 2.89926C29.1589 4.04432 29.9919 5.74838 30.7054 7.92075C32.1296 12.2574 33.0228 18.2959 33.0228 24.9998C33.0228 31.7037 32.1296 37.7422 30.7054 42.0789C29.9919 44.2513 29.1589 45.9554 28.2698 47.1004C27.3732 48.2553 26.5089 48.7342 25.7318 48.7342C24.9547 48.7341 24.0912 48.2551 23.1946 47.1004C22.3055 45.9554 21.4716 44.2514 20.7581 42.0789C19.3339 37.7422 18.4407 31.7036 18.4407 24.9998C18.4407 18.296 19.3339 12.2574 20.7581 7.92075C21.4716 5.74833 22.3055 4.04433 23.1946 2.89926C24.0912 1.74479 24.9548 1.26556 25.7318 1.26547Z" stroke="url(#paint0_linear_17_46)" stroke-width="1.5"/>
<path d="M50.7139 24.7427C50.7137 25.4507 50.2384 26.2724 49.0255 27.1431C47.8303 28.001 46.0523 28.8042 43.7881 29.4918C39.2685 30.8641 32.9791 31.7242 26.0001 31.7242C19.021 31.7242 12.7316 30.8641 8.21198 29.4918C5.94778 28.8042 4.16982 28.001 2.97467 27.1431C1.76174 26.2724 1.2864 25.4507 1.28619 24.7427C1.28619 24.0347 1.76158 23.2133 2.97467 22.3423C4.16983 21.4844 5.94758 20.6803 8.21198 19.9927C12.7316 18.6204 19.021 17.7603 26.0001 17.7603C32.9791 17.7603 39.2685 18.6204 43.7881 19.9927C46.0525 20.6803 47.8303 21.4844 49.0255 22.3423C50.2385 23.2132 50.7139 24.0347 50.7139 24.7427Z" stroke="url(#paint1_linear_17_46)" stroke-width="1.5"/>
<path d="M25.7319 9.27835L28.4613 22.1179L41.8144 24.7423L28.4613 27.3666L25.7319 40.2062L23.0026 27.3666L9.64948 24.7423L23.0026 22.1179L25.7319 9.27835Z" fill="url(#paint2_linear_17_46)" stroke="#F8F0FD" stroke-width="1.5"/>
<defs>
<linearGradient id="paint0_linear_17_46" x1="17.6907" y1="25" x2="32.1595" y2="23.0803" gradientUnits="userSpaceOnUse">
<stop stop-color="#FF62B7"/>
<stop offset="1" stop-color="#9F53FF"/>
</linearGradient>
<linearGradient id="paint1_linear_17_46" x1="26" y1="17.0103" x2="27.7109" y2="30.9576" gradientUnits="userSpaceOnUse">
<stop stop-color="#FF62B7"/>
<stop offset="1" stop-color="#9F53FF"/>
</linearGradient>
<linearGradient id="paint2_linear_17_46" x1="9.64948" y1="24.7423" x2="34.6782" y2="14.2266" gradientUnits="userSpaceOnUse">
<stop stop-color="#FF62B7"/>
<stop offset="1" stop-color="#9F53FF"/>
</linearGradient>
</defs>
</svg>
